:SAMPLES-PER-SECOND 30
:FULLY-SPECIFIED
:DEGREES
643
root  -50.8782 37.3894 2.98462 141.229 -82.9931 -151.969
RightUpLeg  -11.6046 -14.9864 -8.2456
RightLeg  67.7226 0.503087 0.678697
RightFoot  -2.95939 -0.412017 5.3557
RightToes  -8.73116e-010 0 -3.6325e-017
Spine  52.0731 -1.90764 3.67551
Spine1  6.70706 1.2505 -5.4022
HEad  -22.9322 1.54345 -4.77348
LeftShoulder1  1.24274 -0.629931 -23.8064
LeftArm  -15.0055 -13.798 -42.537
LeftForeArm  9.60041 -61.4362 -20.3967
LeftHand  0.0222547 1.78348 -1.06036
RightShoulder  0.242266 -2.61073 21.9031
RightArm  -11.5659 12.4642 44.4622
RightForeArm  10.2544 69.9075 32.7159
RightHand  -0.0413671 0.790002 -0.855739
LeftUpLeg  -24.2325 23.3729 1.75596
LeftLeg  25.9716 -6.82968 -3.25816
LeftFoot  9.5561 -1.80872 9.46647
LeftToes  -5.63919e-011 3.32596e-011 1.92487e-011
644
root  -51.4712 37.8245 3.05079 130.857 -82.2501 -141.681
RightUpLeg  -14.704 -17.8642 -5.3229
RightLeg  60.9731 -0.487349 -1.40066
RightFoot  -4.4111 -0.376153 5.69805
RightToes  -8.73116e-010 0 -3.6325e-017
Spine  57.7245 -2.48025 4.24256
Spine1  5.70078 1.22281 -4.54628
HEad  -25.9032 1.71922 -4.7167
LeftShoulder1  1.38275 -1.23516 -22.8452
LeftArm  -15.8322 -20.0453 -43.3169
LeftForeArm  4.54071 -55.5262 -16.1714
LeftHand  0.00267949 1.68774 -0.356612
RightShoulder  0.494695 -1.51923 18.5762
RightArm  -13.1596 20.2971 46.5847
RightForeArm  -0.356104 62.2523 22.2649
RightHand  0.0588762 1.33503 0.868261
LeftUpLeg  -22.2729 24.8099 3.50513
LeftLeg  24.8611 -8.65779 -4.01591
LeftFoot  8.99168 -1.74352 9.39283
LeftToes  -5.63919e-011 3.32596e-011 1.92487e-011
645
root  -52.02 38.1733 3.07415 124.039 -81.3672 -134.413
RightUpLeg  -17.1166 -19.8175 -1.97656
RightLeg  51.0972 -2.01271 -3.03106
RightFoot  -5.07157 -0.345938 5.67746
RightToes  -8.73116e-010 0 -3.6325e-017
Spine  62.7707 -2.90078 4.90734
Spine1  4.80897 1.50104 -3.90892
HEad  -28.6722 0.772553 -4.89258
LeftShoulder1  1.5114 -1.76425 -22.4276
LeftArm  -15.6803 -27.1668 -43.0319
LeftForeArm  1.60858 -49.8088 -13.1799
LeftHand  -0.016156 2.68572 0.0751761
RightShoulder  0.618553 -0.757183 15.8962
RightArm  -14.4754 28.6547 47.2504
RightForeArm  -7.32469 53.6101 15.8947
RightHand  0.21448 2.57433 2.94922
LeftUpLeg  -21.2729 25.4899 4.98863
LeftLeg  24.1005 -9.49544 -4.28136
LeftFoot  8.6018 -1.69978 9.34676
LeftToes  -5.63919e-011 3.32596e-011 1.92487e-011
646
root  -52.5239 38.3739 2.98846 120.347 -81.2855 -129.975
RightUpLeg  -18.4594 -20.5533 0.373144
RightLeg  38.7585 -1.83224 -1.98831
RightFoot  -4.40562 -0.429796 6.57927
RightToes  -8.73116e-010 0 -3.6325e-017
Spine  67.0011 -3.31175 5.31036
Spine1  3.93853 1.79404 -4.15073
HEad  -31.474 -0.279737 -4.94932
LeftShoulder1  1.71295 -3.03582 -19.7097
LeftArm  -16.145 -32.9306 -44.0436
LeftForeArm  0.0368665 -44.5059 -11.0096
LeftHand  -0.0317594 2.54217 0.710006
RightShoulder  0.744413 0.202525 13.2465
RightArm  -15.9277 35.6676 46.9914
RightForeArm  -13.8086 44.8371 12.0308
RightHand  0.267574 4.06791 2.99471
LeftUpLeg  -21.0611 24.8003 5.51659
LeftLeg  23.7894 -9.34157 -4.14513
LeftFoot  8.11452 -1.64287 9.26853
LeftToes  -5.63919e-011 3.32596e-011 1.92487e-011
647
root  -53.0012 38.3349 2.75756 117.446 -82.5597 -125.361
RightUpLeg  -20.0082 -18.5032 1.12153
RightLeg  26.2827 1.53338 0.618538
RightFoot  -3.95887 -0.599618 8.93512
RightToes  -8.73116e-010 0 -3.6325e-017
Spine  70.0027 -3.15108 4.98251
Spine1  3.02349 1.64468 -3.22913
HEad  -34.05 -1.07807 -4.23199
LeftShoulder1  1.75839 -3.9138 -17.0119
LeftArm  -17.3669 -38.6097 -46.1264
LeftForeArm  -0.993826 -39.1477 -9.16323
LeftHand  -0.0611391 0.739737 1.45654
RightShoulder  0.858568 1.37835 10.3282
RightArm  -16.9678 42.2444 44.8359
RightForeArm  -20.9536 35.4369 9.07649
RightHand  0.375642 5.01307 3.88334
LeftUpLeg  -23.0044 23.5881 4.36718
LeftLeg  24.865 -9.1058 -4.24841
LeftFoot  7.14278 -1.5208 9.06082
LeftToes  -5.63919e-011 3.32596e-011 1.92487e-011
648
root  -53.4357 38.0904 2.30423 119.027 -84.9667 -124.426
RightUpLeg  -22.2948 -10.6242 -0.751988
RightLeg  16.6079 4.27525 1.31141
RightFoot  -4.07013 -1.00224 14.7137
RightToes  -8.73116e-010 0 -3.6325e-017
Spine  72.1789 -1.87182 3.32962
Spine1  1.32531 1.65162 -2.65616
HEad  -35.6771 -2.49403 -3.00153
LeftShoulder1  1.89573 -5.22971 -14.895
LeftArm  -17.8812 -44.449 -45.4763
LeftForeArm  -2.7119 -34.4113 -7.86005
LeftHand  -0.0666825 0.846618 1.56148
RightShoulder  0.90661 2.21985 8.40069
RightArm  -17.9786 47.3814 42.0149
RightForeArm  -23.4279 27.9651 7.16687
RightHand  0.343495 5.57671 3.33955
LeftUpLeg  -26.7533 23.4997 1.4996
LeftLeg  27.4356 -9.0482 -4.72556
LeftFoot  6.17989 -1.48747 9.38202
LeftToes  -5.63919e-011 3.32596e-011 1.92487e-011
649
root  -53.9508 37.8033 1.95002 80.9917 -86.7588 -85.5401
RightUpLeg  -22.7114 -7.62051 -3.02985
RightLeg  12.3828 7.5854 2.42343
RightFoot  0.325906 -1.37587 15.443
RightToes  -8.73116e-010 0 -3.6325e-017
Spine  74.9284 -4.84333 4.84935
Spine1  0.50798 0.208396 -4.43364
HEad  -37.7973 -4.28824 -1.22378
LeftShoulder1  2.25998 -7.75748 -13.0522
LeftArm  -19.5932 -51.2823 -39.5303
LeftForeArm  -7.0367 -29.0502 -6.66076
LeftHand  -0.0269913 2.64335 0.604566
RightShoulder  1.07175 3.69451 7.33822
RightArm  -19.3988 51.9932 36.2612
RightForeArm  -27.9923 21.1858 5.35459
RightHand  0.252196 7.45483 1.89203
LeftUpLeg  -28.8092 19.9899 0.157273
LeftLeg  30.4367 -8.57793 -5.07093
LeftFoot  4.75069 -1.37907 9.53424
LeftToes  -5.63919e-011 3.32596e-011 1.92487e-011
650
root  -54.473 37.6279 1.63446 31.0285 -84.074 -36.6574
RightUpLeg  -22.7013 -10.3579 -2.15101
RightLeg  15.732 10.6954 4.20179
RightFoot  10.4755 -1.01108 5.11537
RightToes  -8.73116e-010 0 -3.6325e-017
Spine  78.6417 -8.52999 7.94961
Spine1  0.0282489 -1.22453 -3.58057
HEad  -39.0545 -5.26629 -0.0686511
LeftShoulder1  2.25107 -8.75736 -11.1324
LeftArm  -21.6408 -56.3744 -38.1884
LeftForeArm  -8.69415 -25.6738 -5.94571
LeftHand  -0.0277857 2.10224 0.598748
RightShoulder  1.07135 4.53887 5.51702
RightArm  -20.3306 54.7711 31.3244
RightForeArm  -33.3763 16.4849 3.17547
RightHand  0.152158 7.66969 0.980221
LeftUpLeg  -28.5276 15.6757 1.40996
LeftLeg  33.1146 -8.29616 -5.44252
LeftFoot  3.29698 -1.2902 9.85181
LeftToes  -5.63919e-011 3.32596e-011 1.92487e-011
651
root  -54.8907 37.4 1.2944 25.3333 -80.9365 -32.2363
RightUpLeg  -23.4334 -13.4083 -0.982437
RightLeg  21.9535 9.59989 4.26037
RightFoot  7.05277 -0.608601 4.07559
RightToes  -8.73116e-010 0 -3.6325e-017
Spine  82.9485 -11.6404 10.3108
Spine1  -1.01367 -1.58054 -3.33042
HEad  -41.0168 -6.92111 0.149602
LeftShoulder1  2.07955 -9.27617 -8.91104
LeftArm  -24.6039 -60.9761 -37.2788
LeftForeArm  -9.77174 -22.9934 -5.33432
LeftHand  -0.0368805 2.50487 0.86876
RightShoulder  0.898947 4.40926 3.32675
RightArm  -23.432 57.0793 26.5993
RightForeArm  -35.8387 12.6217 1.63395
RightHand  0.04834 8.63413 0.0163543
LeftUpLeg  -28.4029 12.064 3.17252
LeftLeg  36.089 -7.42019 -5.41875
LeftFoot  1.32357 -1.02628 9.15068
LeftToes  -5.63919e-011 3.32596e-011 1.92487e-011
652
root  -55.3645 37.2923 1.00267 21.5103 -78.8234 -29.5347
RightUpLeg  -22.9744 -16.519 -0.327704
RightLeg  25.2426 10.5828 5.11734
RightFoot  6.03663 -0.352085 2.56268
RightToes  -8.73116e-010 0 -3.6325e-017
Spine  88.0066 -14.8817 11.6162
Spine1  -3.78957 -1.69009 -5.65086
HEad  -41.7531 -8.38973 1.46639
LeftShoulder1  2.01973 -11.3284 -5.82645
LeftArm  -30.2226 -62.3218 -35.0257
LeftForeArm  -8.32579 -21.3445 -4.57998
LeftHand  -0.0143317 2.50997 -0.225853
RightShoulder  1.02583 5.17102 3.86137
RightArm  -26.8553 58.3815 19.8461
RightForeArm  -36.4248 8.74254 0.94115
RightHand  -0.0169703 9.81035 -0.53805
LeftUpLeg  -27.7305 8.93505 4.56109
LeftLeg  38.0333 -6.51203 -5.08296
LeftFoot  -0.430645 -0.782937 8.21013
LeftToes  -5.63919e-011 3.32596e-011 1.92487e-011
653
root  -55.7308 37.0928 0.352545 17.7636 -79.5747 -23.8603
RightUpLeg  -26.951 -14.7216 -0.135004
RightLeg  29.3687 8.65521 5.01507
RightFoot  4.56584 -0.0438207 0.539971
RightToes  -8.73116e-010 0 -3.6325e-017
Spine  90.1652 -12.4233 9.95635
Spine1  -4.56555 -1.31043 -3.72929
HEad  -43.4252 -7.58477 2.5958
LeftShoulder1  1.7292 -11.5837 -3.42218
LeftArm  -36.4801 -64.2882 -30.379
LeftForeArm  -9.78684 -20.5636 -4.00776
LeftHand  -0.0645379 0.634407 1.56564
RightShoulder  1.03939 5.68326 3.27673
RightArm  -32.8657 60.271 13.2069
RightForeArm  -34.0736 6.4781 -0.0132715
RightHand  -0.010491 9.214 -0.470782
LeftUpLeg  -30.0905 9.26358 4.24557
LeftLeg  39.5874 -6.52622 -5.38693
LeftFoot  -1.29419 -0.598577 6.8959
LeftToes  -5.63919e-011 3.32596e-011 1.92487e-011
